<?xml version="1.0" standalone="no"?>
<!DOCTYPE svg PUBLIC "-//W3C//DTD SVG 20010904//EN"
 "http://www.w3.org/TR/2001/REC-SVG-20010904/DTD/svg10.dtd">
<svg version="1.0" xmlns="http://www.w3.org/2000/svg"
 width="1280.000000pt" height="689.000000pt" viewBox="0 0 1280.000000 689.000000"
 preserveAspectRatio="xMidYMid meet">

<g transform="translate(0.000000,689.000000) scale(0.100000,-0.100000)"
fill="#000000" stroke="none">
<path d="M1 3713 c0 -2757 2 -3171 14 -3126 8 29 24 72 36 95 32 63 144 169
217 206 106 53 176 62 497 62 l285 0 0 -85 0 -85 -282 0 c-305 0 -350 -6 -431
-53 -53 -32 -89 -70 -119 -127 -19 -37 -23 -60 -23 -130 0 -75 3 -91 27 -132
33 -55 93 -109 157 -140 43 -21 62 -23 264 -26 l217 -3 0 90 0 91 -165 0 -165
0 0 85 0 85 260 0 260 0 0 -260 0 -260 75 0 75 0 0 475 0 476 373 -3 c370 -3
372 -3 421 -27 173 -86 208 -290 70 -410 -37 -33 -113 -71 -140 -71 -8 0 -14
-3 -14 -7 0 -8 57 -112 182 -333 l54 -95 284 -1 c157 -1 272 1 255 3 -48 6
-159 51 -209 84 -105 70 -188 200 -205 319 -27 199 76 383 267 479 57 29 184
61 240 61 192 0 393 -107 474 -253 48 -86 61 -140 56 -246 -3 -85 -8 -106 -35
-162 -18 -35 -47 -82 -64 -103 -68 -82 -192 -153 -304 -176 -22 -4 184 -8 465
-8 291 0 487 4 463 8 -101 21 -199 77 -279 162 -110 116 -124 173 -124 515 l0
264 93 -3 92 -3 3 -260 c2 -200 6 -271 18 -307 21 -64 92 -140 162 -175 51
-25 68 -28 157 -28 88 0 107 3 156 27 71 34 124 88 158 158 26 55 26 56 28
320 l2 265 91 3 91 3 -3 -293 -3 -293 -27 -59 c-73 -154 -210 -263 -373 -296
-24 -5 79 -8 258 -9 l297 -1 0 475 0 476 373 -3 372 -3 60 -30 c46 -23 69 -43
98 -85 91 -133 44 -287 -109 -365 l-59 -30 -272 -3 -273 -4 0 -214 0 -214
1048 1 c576 1 1029 5 1007 9 -155 31 -298 137 -365 269 -31 62 -53 175 -44
236 21 160 120 298 267 370 119 58 178 66 500 63 l282 -3 3 -82 3 -82 -308 -3
-308 -3 -65 -31 c-122 -58 -185 -149 -185 -269 0 -119 63 -213 181 -271 59
-29 60 -29 277 -32 l217 -3 0 90 0 91 -170 0 -170 0 0 85 0 85 265 0 265 0 0
-260 0 -260 213 1 c116 1 199 4 182 9 -93 23 -174 86 -215 167 l-25 48 -3 363
-3 362 90 0 90 0 3 -343 c3 -380 3 -376 71 -417 30 -19 52 -20 325 -20 l292 0
0 -85 0 -85 223 1 c156 1 209 4 177 10 -108 21 -186 64 -272 150 -105 106
-153 247 -129 376 37 200 193 354 403 397 102 21 159 20 252 -4 313 -80 477
-384 348 -645 -68 -137 -209 -243 -367 -275 -24 -5 71 -8 243 -9 l282 -1 0
475 0 475 355 0 c336 0 357 -1 411 -21 144 -54 213 -187 165 -317 l-21 -58 53
-55 c57 -59 87 -127 87 -195 0 -131 -98 -255 -230 -290 -41 -11 -29 -13 121
-13 l166 -1 140 248 c77 136 155 273 173 306 17 32 45 81 61 108 16 27 29 51
29 53 0 2 27 49 60 104 33 55 60 105 60 111 0 7 5 10 11 8 10 -3 41 -56 199
-338 26 -47 56 -101 67 -120 94 -166 212 -375 238 -420 l31 -55 170 -1 c93 -1
153 1 134 5 -56 11 -139 62 -176 106 -69 85 -69 82 -72 478 l-3 357 95 0 96 0
0 -342 c0 -472 -31 -438 389 -438 l291 0 0 3360 0 3360 -3132 -2 c-1723 -1
-3115 -3 -3093 -4 147 -11 364 -58 476 -102 255 -102 412 -199 583 -362 101
-97 216 -236 216 -263 0 -3 -24 8 -54 24 -29 16 -101 47 -160 69 -301 113
-414 144 -842 230 -556 111 -782 163 -851 198 -43 22 -93 69 -93 86 2 57 137
100 365 116 55 4 -1321 8 -3057 8 l-3158 2 1 -3177z m5574 2970 c-4 -10 -10
-42 -13 -71 -4 -51 -3 -54 36 -91 83 -79 304 -146 727 -221 154 -27 343 -61
420 -75 77 -14 230 -41 340 -60 110 -19 238 -42 285 -50 103 -18 350 -62 595
-105 99 -18 245 -42 325 -55 348 -57 434 -73 785 -141 713 -138 1095 -275
1168 -417 27 -52 12 -100 -47 -155 -143 -132 -692 -299 -1306 -398 -85 -13
-222 -35 -305 -49 -82 -13 -249 -36 -370 -50 -121 -15 -220 -28 -220 -28 -1
-10 -120 -178 -136 -193 l-21 -19 8 40 c12 67 8 118 -13 165 -22 49 -82 113
-126 137 -35 18 -159 58 -207 67 -19 4 -55 11 -80 17 -25 5 -133 25 -240 44
-107 20 -215 40 -240 45 -25 5 -112 21 -195 35 -82 14 -172 30 -200 35 -81 15
-205 37 -280 50 -38 6 -81 13 -95 16 -33 6 -129 24 -380 68 -498 87 -633 123
-833 221 -104 51 -184 132 -189 188 -2 24 -7 27 -38 27 -85 0 -434 -85 -598
-146 -113 -42 -215 -95 -254 -132 -57 -53 -29 -112 77 -165 87 -43 361 -125
488 -147 29 -5 126 -22 217 -39 288 -52 523 -93 580 -102 30 -4 120 -20 200
-34 80 -15 170 -30 200 -35 59 -10 114 -19 255 -45 50 -9 115 -20 145 -25 30
-5 120 -20 200 -35 80 -14 170 -30 200 -35 123 -20 680 -121 743 -135 177 -40
367 -149 413 -237 22 -43 18 -119 -9 -159 -30 -44 -116 -113 -213 -170 -126
-73 -169 -85 -145 -41 6 12 11 42 11 67 0 40 -5 52 -32 76 -49 47 -181 104
-330 144 -139 37 -167 42 -588 116 -129 22 -345 60 -480 84 -135 24 -339 60
-455 80 -115 20 -257 45 -315 55 -136 25 -329 58 -665 115 -1100 186 -1616
327 -1778 483 -193 187 128 357 1063 562 196 43 1012 160 1115 160 38 0 41 3
58 43 10 23 41 74 69 112 49 66 52 69 59 45 4 -14 7 -45 8 -70 2 -93 81 -172
257 -257 104 -50 133 -60 237 -78 112 -19 242 -43 337 -61 41 -7 143 -25 225
-40 155 -27 194 -34 282 -53 29 -5 74 -13 100 -16 26 -4 95 -15 153 -26 126
-24 226 -42 379 -70 62 -11 170 -31 240 -46 69 -14 137 -27 151 -30 96 -18
404 -99 458 -120 79 -32 197 -106 232 -147 14 -16 32 -48 40 -70 l16 -41 49 3
c102 7 403 82 548 137 96 36 217 98 250 128 38 36 36 76 -5 117 -43 41 -62 51
-188 93 -174 58 -303 91 -495 126 -76 14 -403 71 -605 106 -85 14 -202 35
-260 45 -58 11 -157 28 -220 39 -63 11 -182 32 -265 46 -82 15 -175 31 -205
35 -53 8 -309 54 -475 84 -44 8 -134 25 -200 36 -468 83 -540 103 -676 193
-113 74 -139 111 -139 194 0 77 44 128 197 227 70 45 168 96 187 96 4 0 5 -8
1 -17z m-577 -2198 c65 -42 394 -165 563 -209 89 -24 237 -56 744 -162 410
-85 540 -123 606 -175 31 -25 39 -37 37 -58 -7 -59 -131 -93 -413 -112 -155
-10 -201 -9 -330 4 -332 36 -643 153 -880 333 -92 70 -235 210 -312 308 -80
100 -84 116 -15 71z m-3246 -1254 c42 -11 103 -33 136 -50 72 -36 173 -127
208 -187 27 -45 54 -132 54 -171 l0 -23 -184 0 -184 0 -6 35 c-9 46 -59 92
-120 110 -76 23 -907 22 -968 -1 -137 -52 -153 -206 -28 -275 20 -11 123 -15
495 -20 528 -7 542 -9 695 -86 170 -86 300 -272 300 -429 0 -233 -183 -432
-464 -504 -72 -18 -111 -20 -500 -20 -444 -1 -488 3 -604 46 -130 49 -227 124
-297 227 -38 56 -75 160 -75 211 l0 31 182 -5 182 -5 7 -31 c13 -68 61 -119
154 -164 47 -23 784 -28 860 -5 186 54 245 241 113 360 -82 73 -89 74 -608 78
-445 3 -457 3 -525 26 -85 28 -132 51 -193 96 -52 37 -64 50 -109 116 -71 102
-83 260 -29 371 67 140 221 248 396 278 25 4 268 8 541 9 460 1 501 0 571 -18z
m4341 -9 c305 -103 440 -380 296 -611 l-27 -45 41 -26 c244 -157 317 -429 175
-652 -72 -114 -229 -217 -393 -258 -77 -20 -110 -21 -825 -20 -410 0 -748 0
-752 0 -5 0 -8 369 -8 820 l0 821 713 -3 c711 -3 712 -3 780 -26z m1147 -792
l0 -820 -185 0 -185 0 0 820 0 820 185 0 185 0 0 -820z m2350 0 c0 -451 -2
-820 -5 -820 -7 0 -82 45 -290 175 -104 65 -230 143 -280 173 -49 30 -101 62
-115 71 -14 9 -62 38 -107 66 -123 75 -252 155 -308 190 -27 18 -111 69 -185
115 -74 45 -151 92 -170 105 -95 61 -218 135 -224 135 -3 0 -6 -232 -6 -515 0
-283 -3 -515 -7 -515 -5 0 -87 -1 -183 -2 l-175 -2 -3 817 c-1 449 0 817 3
817 3 0 94 -55 203 -122 353 -218 546 -336 612 -378 36 -22 112 -69 170 -105
58 -35 137 -84 175 -108 39 -24 131 -81 205 -127 74 -46 174 -107 221 -137 47
-29 89 -53 93 -53 3 0 6 234 6 520 l0 520 185 0 185 0 0 -820z m1570 796 c234
-55 414 -151 551 -294 101 -104 149 -181 191 -308 30 -92 32 -287 4 -379 -40
-128 -99 -225 -203 -329 -152 -153 -346 -250 -581 -291 -71 -12 -194 -15 -652
-15 -311 0 -571 0 -577 0 -10 0 -13 171 -13 820 l0 821 603 -4 c533 -3 611 -5
677 -21z m1430 -795 c0 -530 -3 -821 -10 -823 -5 -1 -86 -2 -180 0 l-170 3 -2
815 c-2 449 -1 818 1 820 2 2 85 4 183 4 l178 0 0 -819z m-9108 640 c54 -84
98 -157 98 -162 0 -5 3 -9 8 -9 4 0 12 -9 17 -19 6 -11 39 -65 75 -121 36 -56
79 -123 95 -150 32 -52 73 -116 255 -400 62 -96 124 -195 139 -219 14 -24 56
-89 92 -145 36 -55 84 -130 107 -166 l42 -65 -198 -3 c-171 -2 -198 -1 -207
13 -5 9 -46 72 -90 140 -139 216 -210 328 -214 339 -2 5 -8 15 -13 21 -5 5
-50 75 -101 155 -50 80 -94 147 -97 150 -3 3 -28 42 -55 88 -28 45 -54 82 -58
82 -5 0 -15 -7 -23 -15 -9 -8 -12 -15 -9 -15 4 0 -8 -21 -27 -47 -18 -27 -38
-57 -45 -68 -6 -11 -62 -100 -125 -197 -62 -98 -143 -226 -180 -284 -38 -58
-68 -110 -68 -115 0 -5 -4 -9 -10 -9 -5 0 -10 -6 -10 -14 0 -8 -3 -16 -8 -18
-4 -1 -37 -49 -72 -105 l-65 -103 -199 0 -198 0 14 23 c8 12 37 57 64 100 27
43 77 121 112 173 34 53 72 115 85 138 12 23 28 48 35 56 7 8 28 39 45 67 32
53 109 174 277 438 49 77 117 185 152 240 34 55 99 157 145 226 45 70 86 134
89 143 4 9 12 15 18 13 6 -2 55 -72 108 -156z"/>
<path d="M4960 2810 l0 -151 509 3 c499 3 510 3 538 24 84 62 97 158 29 217
-60 53 -44 52 -578 55 l-498 3 0 -151z"/>
<path d="M4960 2130 l0 -230 543 0 c601 0 607 1 689 63 142 109 115 285 -57
367 l-63 30 -556 0 -556 0 0 -230z"/>
<path d="M10248 2430 l-3 -531 405 4 c454 4 457 4 608 80 56 27 104 61 147
103 75 73 104 117 135 201 19 53 22 77 18 161 -3 87 -7 107 -37 168 -47 95
-159 206 -261 257 -151 75 -186 80 -622 85 l-388 4 -2 -532z"/>
<path d="M1390 689 l0 -90 259 3 c259 3 259 3 285 27 29 27 35 83 12 113 -25
33 -65 38 -312 38 l-244 0 0 -91z"/>
<path d="M2689 765 c-67 -24 -115 -54 -152 -91 -131 -135 -105 -346 56 -448
177 -112 425 -47 509 133 32 68 30 170 -4 236 -29 55 -83 110 -139 142 -72 41
-200 54 -270 28z"/>
<path d="M4820 690 l0 -91 254 3 c240 3 256 4 283 24 47 35 44 107 -6 137 -26
15 -60 17 -280 17 l-251 0 0 -90z"/>
<path d="M8943 759 c-75 -24 -157 -93 -193 -165 -19 -38 -25 -65 -25 -119 0
-120 61 -212 185 -276 38 -20 60 -23 145 -24 88 0 107 3 156 26 138 65 214
208 179 336 -51 185 -251 284 -447 222z"/>
<path d="M9890 690 l0 -90 239 0 c260 0 293 5 316 51 22 42 18 68 -16 100
l-31 29 -254 0 -254 0 0 -90z"/>
<path d="M11337 563 c-2 -4 -73 -129 -157 -278 -84 -148 -154 -273 -157 -277
-2 -5 140 -8 316 -8 177 0 321 3 321 8 0 7 -213 388 -283 505 -19 33 -37 55
-40 50z"/>
<path d="M9900 432 c-6 -2 -10 -56 -10 -133 l0 -129 281 0 c239 0 286 2 315
16 53 25 74 59 74 117 0 45 -4 54 -40 88 l-40 38 -285 3 c-157 2 -290 2 -295
0z"/>
<path d="M1390 215 l0 -215 274 0 275 0 -56 98 c-30 53 -75 133 -100 177 -79
142 -101 155 -273 155 l-120 0 0 -215z"/>
<path d="M1 208 l-1 -208 223 1 c122 1 211 4 197 6 -14 2 -52 13 -85 25 -157
55 -279 181 -319 329 -14 52 -15 47 -15 -153z"/>
</g>
</svg>
